HIERARCHY
ROOT ui
{
	 OFFSET 0 0 0
	 CHANNELS 3 XPosition YPosition Z Position
	 EndSite
	 {
	 OFFSET 0 -1 0
	 }
}
ROOT li
{
	 OFFSET 0 0 0
	 CHANNELS 3 XPosition YPosition Z Position
	 EndSite
	 {
	 OFFSET 0 -1 0
	 }
}
ROOT ul
{
	 OFFSET 0 0 0
	 CHANNELS 3 XPosition YPosition Z Position
	 EndSite
	 {
	 OFFSET 0 -1 0
	 }
}
ROOT ll
{
	 OFFSET 0 0 0
	 CHANNELS 3 XPosition YPosition Z Position
	 EndSite
	 {
	 OFFSET 0 -1 0
	 }
}
ROOT tt
{
	 OFFSET 0 0 0
	 CHANNELS 3 XPosition YPosition Z Position
	 EndSite
	 {
	 OFFSET 0 -1 0
	 }
}
ROOT tb
{
	 OFFSET 0 0 0
	 CHANNELS 3 XPosition YPosition Z Position
	 EndSite
	 {
	 OFFSET 0 -1 0
	 }
}
ROOT td
{
	 OFFSET 0 0 0
	 CHANNELS 3 XPosition YPosition Z Position
	 EndSite
	 {
	 OFFSET 0 -1 0
	 }
}
ROOT v
{
	 OFFSET 0 0 0
	 CHANNELS 3 XPosition YPosition Z Position
	 EndSite
	 {
	 OFFSET 0 -1 0
	 }
}
ROOT bn
{
	 OFFSET 0 0 0
	 CHANNELS 3 XPosition YPosition Z Position
	 EndSite
	 {
	 OFFSET 0 -1 0
	 }
}
MOTION
Frames: 16
Frame Time: 0.002
0.005774288177490234	-0.001526885986328125	0		0.40652975463867186	-2.39542822265625	0		-1.0507042236328126	0.09983003234863282	0		-0.823406005859375	-2.503252197265625	0		1.4298909912109374	-0.7980126953125	0		3.28434423828125	-0.23738002014160156	0		4.5561142578125	-0.043465545654296875	0		5.6609375	0.205665283203125	0		-0.060724781036376956	5.938365234375	0		
0.0013784099817276002	0.0030081770420074465	0		0.4081659545898437	-2.395785888671875	0		-1.0442919921875	0.09469978332519531	0		-0.8946305541992188	-2.498017333984375	0		1.388822021484375	-0.79522509765625	0		3.270138671875	-0.2261623992919922	0		4.55658740234375	-0.042057586669921876	0		5.65649267578125	0.21582806396484375	0		-0.19631146240234376	5.9169140625	0		
0.005996352195739746	0.005402572154998779	0		0.39482009887695313	-2.396910400390625	0		-1.033778564453125	0.0925239486694336	0		-0.8529051513671875	-2.498589599609375	0		1.4378302001953125	-0.7908787231445312	0		3.275551025390625	-0.24228767395019532	0		4.54798779296875	-0.048539222717285155	0		5.66182666015625	0.20879202270507813	0		-0.2163927307128906	5.91955859375	0		
0.021702611923217773	0.010647926330566406	0		0.42853009033203127	-2.395747802734375	0		-1.025094970703125	0.09841319274902344	0		-0.8810375366210937	-2.490048095703125	0		1.399880615234375	-0.7851851196289062	0		3.3046513671875	-0.21678941345214844	0		4.5468037109375	-0.031179168701171874	0		5.671322265625	0.2086380615234375	0		-0.20325035095214844	5.9287041015625	0		
-0.0025942280292510986	0.013513271331787109	0		0.4172728271484375	-2.39188427734375	0		-1.03763525390625	0.08665808868408204	0		-0.812482421875	-2.50291162109375	0		1.4367410888671874	-0.7946227416992188	0		3.268072265625	-0.2383456573486328	0		4.552427734375	-0.02897174072265625	0		5.65293994140625	0.21382510375976563	0		-0.20230810546875	5.91506494140625	0		
0.012893855094909668	-0.0011807899475097655	0		0.41486822509765625	-2.397138427734375	0		-1.04784716796875	0.09491078186035157	0		-0.8857208862304687	-2.49965673828125	0		1.437758056640625	-0.79452001953125	0		3.262963134765625	-0.2304141845703125	0		4.54874560546875	-0.05068601989746094	0		5.64453369140625	0.21476911926269532	0		-0.07070399475097656	5.93560791015625	0		
0.013611088752746582	-0.0016244729757308959	0		0.4165055236816406	-2.397427490234375	0		-1.047166748046875	0.09405973815917969	0		-0.8501165161132812	-2.5059150390625	0		1.435738525390625	-0.7973746948242187	0		3.269670654296875	-0.23669207763671876	0		4.54354931640625	-0.04044010162353515	0		5.65005615234375	0.20841969299316407	0		-0.20557208251953124	5.9139736328125	0		
-4.715009927749634E-4	0.012168599128723144	0		0.3941916809082031	-2.390367431640625	0		-1.1075355224609376	0.08909257507324218	0		-0.8803905639648437	-2.499203125	0		1.4008768310546875	-0.7877863159179688	0		3.274684326171875	-0.2209832305908203	0		4.53433154296875	-0.03220940399169922	0		5.6416953125	0.20916183471679686	0		-0.22591807556152343	5.91774267578125	0		
0.017218667984008788	0.009571063041687011	0		0.43460482788085936	-2.399121337890625	0		-1.032639404296875	0.1033741455078125	0		-0.8408488159179688	-2.501370849609375	0		1.4018623046875	-0.7876917724609375	0		3.2743486328125	-0.23024784851074218	0		4.569892578125	-0.040642845153808595	0		5.65134619140625	0.21055680847167968	0		-0.22716270446777342	5.91829248046875	0		
0.015761837005615235	-0.002731705904006958	0		0.3971513671875	-2.390822021484375	0		-1.12109228515625	0.09386334991455078	0		-0.8773605346679687	-2.5004775390625	0		1.4417252197265624	-0.7940935668945313	0		3.28620849609375	-0.22271328735351562	0		4.53058740234375	-0.03716155242919922	0		5.63887890625	0.20413446044921876	0		-0.20836874389648438	5.911630859375	0		
0.001597314953804016	0.011163860321044923	0		0.45139447021484375	-2.398669921875	0		-1.0444794921875	0.09129619598388672	0		-0.8519585571289062	-2.498323486328125	0		1.44260791015625	-0.7939811401367187	0		3.291841064453125	-0.22914057922363282	0		4.55611083984375	-0.04458638000488281	0		5.64847802734375	0.20532286071777345	0		-0.07709474945068359	5.93361767578125	0		
-0.06600293731689454	-0.004258027076721191	0		0.40553817749023435	-2.404234375	0		-1.1198909912109376	0.0927010498046875	0		-0.8788027954101563	-2.5054580078125	0		1.4403704833984374	-0.7968304443359375	0		3.267520751953125	-0.22624212646484376	0		4.54756787109375	-0.05264749908447266	0		5.64001953125	0.20663374328613282	0		-0.21130638122558593	5.911974609375	0		
0.017527364730834962	-0.003499212980270386	0		0.43764605712890625	-2.40173828125	0		-1.0234445190429688	0.08805682373046875	0		-0.8736571655273437	-2.501937255859375	0		1.4051793212890624	-0.787284912109375	0		3.282975341796875	-0.23488246154785156	0		4.5381533203125	-0.043769996643066404	0		5.64537353515625	0.19866928100585937	0		-0.19608367919921876	5.91950634765625	0		
-0.024924299240112305	0.007819471836090088	0		0.41667376708984377	-2.39257958984375	0		-1.094996337890625	0.09250050354003907	0		-0.8666458740234375	-2.496385986328125	0		1.4497679443359375	-0.7867041015625	0		3.2797470703125	-0.2083397979736328	0		4.5436279296875	-0.036142181396484375	0		5.644947265625	0.21667402648925782	0		-0.19691473388671876	5.919271484375	0		
0.018250146865844728	-0.0038506669998168946	0		0.46628631591796876	-2.40523681640625	0		-1.0427333984375	0.08952413940429688	0		-0.8719401245117188	-2.50264306640625	0		1.4062138671875	-0.7870841064453125	0		3.274813720703125	-0.23182968139648438	0		4.55784228515625	-0.041683395385742186	0		5.63112158203125	0.2097315673828125	0		-0.2478776397705078	5.9056533203125	0		
-0.06154077911376953	-0.002067645072937012	0		0.431005859375	-2.3938857421875	0		-1.03660302734375	0.08514316558837891	0		-0.8373928833007812	-2.5083173828125	0		1.4424302978515624	-0.7964031982421875	0		3.263217041015625	-0.21628866577148437	0		4.54301708984375	-0.04095210266113281	0		5.6271982421875	0.2035730743408203	0		-0.21361073303222655	5.9100703125	0		
